<?xml version="1.0" encoding="iso-8859-1"?>
<!-- Uploaded to: SVG Repo, www.svgrepo.com, Transformed by: SVG Repo Mixer Tools -->
<svg version="1.1" id="Layer_1" xmlns="http://www.w3.org/2000/svg" xmlns:xlink="http://www.w3.org/1999/xlink" 
	 viewBox="0 0 511.448 511.448" xml:space="preserve">
<g>
	<rect x="476.099" y="246.334" style="fill:#C2E95D;" width="18.779" height="18.779"/>
	<rect x="476.099" y="476.099" style="fill:#C2E95D;" width="18.779" height="18.779"/>
	<rect x="246.334" y="476.099" style="fill:#C2E95D;" width="18.779" height="18.779"/>
	<rect x="16.57" y="476.099" style="fill:#C2E95D;" width="18.779" height="18.779"/>
	<rect x="16.57" y="246.334" style="fill:#C2E95D;" width="18.779" height="18.779"/>
	<rect x="246.334" y="246.334" style="fill:#C2E95D;" width="18.779" height="18.779"/>
	<rect x="476.099" y="16.57" style="fill:#C2E95D;" width="18.779" height="18.779"/>
	<rect x="246.334" y="16.57" style="fill:#C2E95D;" width="18.779" height="18.779"/>
	<rect x="16.57" y="16.57" style="fill:#C2E95D;" width="18.779" height="18.779"/>
</g>
<path style="fill:#FFFFFF;" d="M477.204,281.683V459.53h-9.389c-4.573,0-8.285,3.712-8.285,8.285v9.389H281.683v-9.389
	c0-4.573-3.712-8.285-8.285-8.285H238.05c-4.573,0-8.285,3.712-8.285,8.285v9.389H51.918v-9.389c0-4.573-3.712-8.285-8.285-8.285
	h-9.389V281.683h9.389c4.573,0,8.285-3.712,8.285-8.285V238.05c0-4.573-3.712-8.285-8.285-8.285h-9.389V51.918h9.389
	c4.573,0,8.285-3.712,8.285-8.285v-9.389h177.847v9.389c0,4.573,3.712,8.285,8.285,8.285h35.348c4.573,0,8.285-3.712,8.285-8.285
	v-9.389H459.53v9.389c0,4.573,3.712,8.285,8.285,8.285h9.389v177.847h-9.389c-4.573,0-8.285,3.712-8.285,8.285v35.348
	c0,4.573,3.712,8.285,8.285,8.285H477.204z M281.683,273.398V238.05c0-4.573-3.712-8.285-8.285-8.285H238.05
	c-4.573,0-8.285,3.712-8.285,8.285v35.348c0,4.573,3.712,8.285,8.285,8.285h35.348C277.971,281.683,281.683,277.971,281.683,273.398
	z"/>
<g>
	<path style="fill:#535757;" d="M511.448,467.814v35.348c0,4.573-3.712,8.285-8.285,8.285h-35.348c-4.573,0-8.285-3.712-8.285-8.285
		v-9.389H281.683v9.389c0,4.573-3.712,8.285-8.285,8.285H238.05c-4.573,0-8.285-3.712-8.285-8.285v-9.389H51.918v9.389
		c0,4.573-3.712,8.285-8.285,8.285H8.285c-4.573,0-8.285-3.712-8.285-8.285v-35.348c0-4.573,3.712-8.285,8.285-8.285h9.389V281.683
		H8.285c-4.573,0-8.285-3.712-8.285-8.285V238.05c0-4.573,3.712-8.285,8.285-8.285h9.389V51.918H8.285
		C3.712,51.918,0,48.206,0,43.633V8.285C0,3.712,3.712,0,8.285,0h35.348c4.573,0,8.285,3.712,8.285,8.285v9.389h177.847V8.285
		c0-4.573,3.712-8.285,8.285-8.285h35.348c4.573,0,8.285,3.712,8.285,8.285v9.389H459.53V8.285c0-4.573,3.712-8.285,8.285-8.285
		h35.348c4.573,0,8.285,3.712,8.285,8.285v35.348c0,4.573-3.712,8.285-8.285,8.285h-9.389v177.847h9.389
		c4.573,0,8.285,3.712,8.285,8.285v35.348c0,4.573-3.712,8.285-8.285,8.285h-9.389V459.53h9.389
		C507.736,459.53,511.448,463.241,511.448,467.814z M494.878,494.878v-18.779h-18.779v18.779H494.878z M494.878,265.113v-18.779
		h-18.779v18.779H494.878z M494.878,35.348V16.57h-18.779v18.779H494.878z M477.204,459.53V281.683h-9.389
		c-4.573,0-8.285-3.712-8.285-8.285V238.05c0-4.573,3.712-8.285,8.285-8.285h9.389V51.918h-9.389c-4.573,0-8.285-3.712-8.285-8.285
		v-9.389H281.683v9.389c0,4.573-3.712,8.285-8.285,8.285H238.05c-4.573,0-8.285-3.712-8.285-8.285v-9.389H51.918v9.389
		c0,4.573-3.712,8.285-8.285,8.285h-9.389v177.847h9.389c4.573,0,8.285,3.712,8.285,8.285v35.348c0,4.573-3.712,8.285-8.285,8.285
		h-9.389V459.53h9.389c4.573,0,8.285,3.712,8.285,8.285v9.389h177.847v-9.389c0-4.573,3.712-8.285,8.285-8.285h35.348
		c4.573,0,8.285,3.712,8.285,8.285v9.389H459.53v-9.389c0-4.573,3.712-8.285,8.285-8.285H477.204z M265.113,494.878v-18.779h-18.779
		v18.779H265.113z M265.113,35.348V16.57h-18.779v18.779H265.113z M35.348,494.878v-18.779H16.57v18.779H35.348z M35.348,265.113
		v-18.779H16.57v18.779H35.348z M35.348,35.348V16.57H16.57v18.779H35.348z"/>
	<path style="fill:#535757;" d="M281.683,238.05v35.348c0,4.573-3.712,8.285-8.285,8.285H238.05c-4.573,0-8.285-3.712-8.285-8.285
		V238.05c0-4.573,3.712-8.285,8.285-8.285h35.348C277.971,229.765,281.683,233.476,281.683,238.05z M265.113,265.113v-18.779
		h-18.779v18.779H265.113z"/>
</g>
</svg>