<?xml version="1.0" encoding="iso-8859-1"?>
<!-- Uploaded to: SVG Repo, www.svgrepo.com, Transformed by: SVG Repo Mixer Tools -->
<svg height="100px" width="100px" version="1.1" id="Layer_1" xmlns="http://www.w3.org/2000/svg" xmlns:xlink="http://www.w3.org/1999/xlink" 
	 viewBox="0 0 511.448 511.448" xml:space="preserve">
<path style="fill:#535757;" d="M503.163,397.67c4.573,0,8.285,3.712,8.285,8.285s-3.712,8.285-8.285,8.285h-44.186
	c-9.743,0-18.249-5.402-22.689-13.366c-16.724,9.18-31.869,13.366-48.008,13.366h-17.674c-38.342,0-52.194-20.535-56.37-29.372
	c-7.755-16.393-4.562-36.343,8.329-52.051c17.022-20.745,41.28-24.7,66.974-28.886c14.095-2.298,28.621-4.672,43.479-9.809v-11.886
	c0-23.352-15.012-43.258-35.901-50.581c-20.889,7.324-35.901,27.229-35.901,50.581c0,4.573-3.712,8.285-8.285,8.285h-35.348
	c-4.573,0-8.285-3.712-8.285-8.285c0-38.673,31.471-70.145,70.145-70.145h35.348c38.673,0,70.145,31.471,70.145,70.145V388.28
	c0,5.181,4.209,9.389,9.389,9.389L503.163,397.67L503.163,397.67z M458.977,397.67h11.146c-1.138-2.916-1.756-6.076-1.756-9.389
	V282.235c0-25.683-18.171-47.201-42.33-52.382c14.438,12.847,23.551,31.571,23.551,52.382v19.243c0,0.044,0,0.077,0,0.121v86.681
	C449.588,393.461,453.797,397.67,458.977,397.67z M433.018,383.652v-71.061c-22.623,6.86-48.427,15.664-62.291,31.029
	c-10.848,12.018-11.002,27.968-6.341,38.441c2.585,5.821,9.135,15.609,23.893,15.609C402.928,397.67,416.88,393.318,433.018,383.652
	z M358.433,332.518c2.276-2.529,4.772-4.894,7.445-7.103c-12.317,3.292-22.568,8.241-30.51,17.906
	c-8.914,10.87-11.223,23.761-6.153,34.465c4.076,8.627,12.405,14.736,23.75,17.752c-1.392-2.11-2.651-4.342-3.723-6.749
	C341.035,370.33,344.725,347.707,358.433,332.518z M345.133,273.95c2.066-17.464,10.571-32.973,23.065-44.097
	c-21.518,4.606-38.276,22.17-41.689,44.097H345.133z"/>
<g>
	<path style="fill:#C2E95D;" d="M470.123,397.67h-11.146c-5.181,0-9.389-4.209-9.389-9.389v-86.681c0-0.044,0-0.077,0-0.121v-19.243
		c0-20.811-9.113-39.535-23.551-52.382c24.158,5.18,42.33,26.699,42.33,52.382V388.28
		C468.367,391.594,468.985,394.754,470.123,397.67z"/>
	<path style="fill:#C2E95D;" d="M365.878,325.415c-2.673,2.209-5.17,4.574-7.445,7.103c-13.709,15.189-17.398,37.812-9.191,56.27
		c1.072,2.408,2.331,4.639,3.723,6.749c-11.345-3.016-19.674-9.125-23.75-17.752c-5.07-10.704-2.762-23.595,6.153-34.465
		C343.311,333.656,353.562,328.707,365.878,325.415z"/>
	<path style="fill:#C2E95D;" d="M368.198,229.853c-12.493,11.124-20.999,26.633-23.065,44.097h-18.624
		C329.922,252.023,346.68,234.46,368.198,229.853z"/>
</g>
<path style="fill:#535757;" d="M291.072,397.67c4.573,0,8.285,3.712,8.285,8.285s-3.712,8.285-8.285,8.285h-79.534
	c-4.573,0-8.285-3.712-8.285-8.285s3.712-8.285,8.285-8.285h5.302l-29.56-71.802H67.891l-29.56,71.802h5.302
	c4.573,0,8.285,3.712,8.285,8.285s-3.712,8.285-8.285,8.285H8.285c-4.573,0-8.285-3.712-8.285-8.285s3.712-8.285,8.285-8.285h12.129
	l121.599-295.336c1.281-3.104,4.308-5.126,7.666-5.126c3.358,0,6.385,2.021,7.666,5.126L278.943,397.67H291.072z M261.026,397.67
	L149.679,127.254l-13.134,31.891l98.213,238.525H261.026z M180.454,309.299l-52.868-128.392L74.718,309.299H180.454z"/>
<polygon style="fill:#C2E95D;" points="149.679,127.254 261.026,397.67 234.758,397.67 136.544,159.145 "/>
</svg>