<?xml version="1.0" encoding="iso-8859-1"?>
<!-- Uploaded to: SVG Repo, www.svgrepo.com, Transformed by: SVG Repo Mixer Tools -->
<svg height="800px" width="800px" version="1.1" id="Layer_1" xmlns="http://www.w3.org/2000/svg" xmlns:xlink="http://www.w3.org/1999/xlink" 
	 viewBox="0 0 511.448 511.448" xml:space="preserve">
<g>
	<path style="fill:#FFFFFF;" d="M459.53,175.638v177.847H51.918V175.638H459.53z M316.247,264.561c0-6.274-3.413-12.03-8.914-15.034
		l-69.924-38.132c-5.357-2.927-11.687-2.806-16.934,0.309c-5.247,3.115-8.384,8.616-8.384,14.725v76.264
		c0,6.109,3.137,11.61,8.384,14.725c2.717,1.613,5.722,2.419,8.727,2.419c2.817,0,5.623-0.696,8.207-2.11l69.913-38.132
		C312.834,276.59,316.247,270.835,316.247,264.561z"/>
	<path style="fill:#FFFFFF;" d="M494.878,140.289v274.503c0,14.924-12.14,27.064-27.064,27.064H43.633
		c-14.924,0-27.064-12.14-27.064-27.064V140.289H494.878z M476.099,361.769V167.353c0-4.573-3.712-8.285-8.285-8.285H43.633
		c-4.573,0-8.285,3.712-8.285,8.285v194.416c0,4.573,3.712,8.285,8.285,8.285h424.181
		C472.388,370.054,476.099,366.342,476.099,361.769z M476.099,405.955c0-4.573-3.712-8.285-8.285-8.285H130.093
		c-3.469-10.262-13.178-17.674-24.6-17.674s-21.132,7.412-24.6,17.674H43.633c-4.573,0-8.285,3.712-8.285,8.285
		s3.712,8.285,8.285,8.285h37.259c3.469,10.262,13.178,17.674,24.6,17.674s21.132-7.412,24.6-17.674h337.721
		C472.388,414.239,476.099,410.528,476.099,405.955z"/>
</g>
<path style="fill:#C2E95D;" d="M105.493,396.565c5.181,0,9.389,4.209,9.389,9.389s-4.209,9.389-9.389,9.389
	c-5.181,0-9.389-4.209-9.389-9.389S100.312,396.565,105.493,396.565z"/>
<path style="fill:#535757;" d="M511.448,96.656v318.136c0,24.059-19.574,43.633-43.633,43.633H43.633
	C19.574,458.425,0,438.851,0,414.792V96.656c0-24.059,19.574-43.633,43.633-43.633h424.181
	C491.873,53.023,511.448,72.597,511.448,96.656z M494.878,414.792V140.289H16.57v274.503c0,14.924,12.14,27.064,27.064,27.064
	h424.181C482.738,441.855,494.878,429.715,494.878,414.792z M494.878,123.72V96.656c0-14.924-12.14-27.064-27.064-27.064H43.633
	c-14.924,0-27.064,12.14-27.064,27.064v27.064H494.878z"/>
<path style="fill:#C2E95D;" d="M494.878,96.656v27.064H16.57V96.656c0-14.924,12.14-27.064,27.064-27.064h424.181
	C482.738,69.592,494.878,81.732,494.878,96.656z M140.289,96.656c0-4.573-3.712-8.285-8.285-8.285h-8.837
	c-4.573,0-8.285,3.712-8.285,8.285s3.712,8.285,8.285,8.285h8.837C136.578,104.941,140.289,101.229,140.289,96.656z M104.941,96.656
	c0-4.573-3.712-8.285-8.285-8.285h-8.837c-4.573,0-8.285,3.712-8.285,8.285s3.712,8.285,8.285,8.285h8.837
	C101.229,104.941,104.941,101.229,104.941,96.656z M69.592,96.656c0-4.573-3.712-8.285-8.285-8.285H52.47
	c-4.573,0-8.285,3.712-8.285,8.285s3.712,8.285,8.285,8.285h8.837C65.881,104.941,69.592,101.229,69.592,96.656z"/>
<g>
	<path style="fill:#535757;" d="M476.099,167.353v194.416c0,4.573-3.712,8.285-8.285,8.285H43.633c-4.573,0-8.285-3.712-8.285-8.285
		V167.353c0-4.573,3.712-8.285,8.285-8.285h424.181C472.388,159.068,476.099,162.78,476.099,167.353z M459.53,353.484V175.638
		H51.918v177.847H459.53z"/>
	<path style="fill:#535757;" d="M467.814,397.67c4.573,0,8.285,3.712,8.285,8.285s-3.712,8.285-8.285,8.285H130.093
		c-3.469,10.262-13.178,17.674-24.6,17.674s-21.132-7.412-24.6-17.674H43.633c-4.573,0-8.285-3.712-8.285-8.285
		s3.712-8.285,8.285-8.285h37.259c3.469-10.262,13.178-17.674,24.6-17.674s21.132,7.412,24.6,17.674H467.814z M114.882,405.955
		c0-5.181-4.209-9.389-9.389-9.389c-5.181,0-9.389,4.209-9.389,9.389s4.209,9.389,9.389,9.389
		C110.674,415.344,114.882,411.135,114.882,405.955z"/>
	<path style="fill:#535757;" d="M307.333,249.527c5.501,3.005,8.914,8.76,8.914,15.034s-3.413,12.03-8.925,15.034l-69.913,38.132
		c-2.585,1.414-5.391,2.11-8.207,2.11c-3.005,0-6.009-0.806-8.727-2.419c-5.247-3.115-8.384-8.616-8.384-14.725v-76.264
		c0-6.109,3.137-11.61,8.384-14.725c5.247-3.115,11.577-3.237,16.934-0.309L307.333,249.527z M299.677,264.561
		c0-0.331-0.166-0.42-0.287-0.486l-69.913-38.132c-0.066-0.033-0.144-0.088-0.254-0.088c-0.088,0-0.177,0.033-0.298,0.099
		c-0.265,0.155-0.265,0.342-0.265,0.475v76.264c0,0.133,0,0.32,0.265,0.475c0.276,0.166,0.442,0.077,0.552,0.011l69.913-38.132
		C299.512,264.981,299.677,264.892,299.677,264.561z"/>
</g>
<path style="fill:#C2E95D;" d="M299.39,264.075c0.121,0.066,0.287,0.155,0.287,0.486s-0.166,0.42-0.287,0.486l-69.913,38.132
	c-0.11,0.066-0.276,0.155-0.552-0.011c-0.265-0.155-0.265-0.342-0.265-0.475v-76.264c0-0.133,0-0.32,0.265-0.475
	c0.122-0.066,0.21-0.099,0.298-0.099c0.11,0,0.188,0.055,0.254,0.088L299.39,264.075z"/>
<g>
	<path style="fill:#535757;" d="M132.004,88.371c4.573,0,8.285,3.712,8.285,8.285s-3.712,8.285-8.285,8.285h-8.837
		c-4.573,0-8.285-3.712-8.285-8.285s3.712-8.285,8.285-8.285H132.004z"/>
	<path style="fill:#535757;" d="M96.656,88.371c4.573,0,8.285,3.712,8.285,8.285s-3.712,8.285-8.285,8.285h-8.837
		c-4.573,0-8.285-3.712-8.285-8.285s3.712-8.285,8.285-8.285H96.656z"/>
	<path style="fill:#535757;" d="M61.307,88.371c4.573,0,8.285,3.712,8.285,8.285s-3.712,8.285-8.285,8.285H52.47
		c-4.573,0-8.285-3.712-8.285-8.285s3.712-8.285,8.285-8.285H61.307z"/>
</g>
</svg>