<svg width="1em" height="1em" viewBox="0 0 24 24" fill="none" xmlns="http://www.w3.org/2000/svg"><path d="M2.848 19.129c.773 0 1.203-.398 1.504-1.407l.816-2.493h5.145l.828 2.493c.29.999.74 1.407 1.525 1.407.827 0 1.375-.494 1.375-1.268 0-.3-.075-.655-.226-1.117L10.12 6.152C9.658 4.777 9.014 4.22 7.8 4.22c-1.225 0-1.88.57-2.342 1.933L1.763 16.744c-.183.548-.258.881-.258 1.171 0 .73.548 1.214 1.343 1.214zm2.965-6.059l1.869-5.93h.14l1.858 5.93H5.813z" fill="#6A6F7F"></path><path d="M16.93 15.985c0-.807.594-1.29 1.596-1.29h1.893v1.02c0 .929-.826 1.652-1.883 1.652-.956 0-1.605-.566-1.605-1.382zm3.591 2.042v-.28.344c.074.64.501 1.002 1.15 1.002.761 0 1.188-.473 1.188-1.308v-5.381c0-2.18-1.447-3.405-4.027-3.405-1.076 0-1.901.186-2.523.51-.863.436-1.262 1.02-1.262 1.596 0 .501.334.863.872.863.4 0 .66-.102.937-.325.548-.492 1.077-.77 1.819-.77 1.122 0 1.744.52 1.744 1.512v.807H18.08c-2.236 0-3.581 1.123-3.581 2.941 0 1.79 1.299 2.997 3.22 2.997 1.205 0 2.3-.221 2.801-1.103z" fill="#AAB2BF"></path></svg>