<svg xmlns="http://www.w3.org/2000/svg" viewBox="0 0 30 30"><path d="M4.158 18.784L6.385 6.158l7.533 1.329 3.476-.997.191-.388L5.747 4.015a1.001 1.001 0 00-1.159.813L2.015 19.419a1 1 0 00.807 1.16l6.537 1.152a.782.782 0 01-.075-.177l-.564-1.966-4.562-.804zM12.902 16.582l.259.966 9.548-2.558-.258-.966-9.549 2.558z" fill="#666"></path><path d="M12.317 14.4l-.258-.966 9.548-2.558.259.966-9.549 2.558zM13.746 19.73l.258.966 7.208-1.93-.259-.967-7.207 1.932z" fill="#666"></path><path fill-rule="evenodd" clip-rule="evenodd" d="M8.257 11.36a.998.998 0 01.707-1.219L22.64 6.477a1.001 1.001 0 011.222.703l3.703 13.819a.998.998 0 01-.707 1.219l-13.676 3.664a1.001 1.001 0 01-1.222-.702L8.257 11.36zm5.375 12.331L10.45 11.814l11.74-3.146 3.183 11.878-11.741 3.145z" fill="#666"></path></svg>