<svg xmlns="http://www.w3.org/2000/svg" viewBox="0 0 30 30"><path fill-rule="evenodd" clip-rule="evenodd" d="M26 8H4a2 2 0 00-2 2v10a2 2 0 002 2h22a2 2 0 002-2V10a2 2 0 00-2-2zM4 6a4 4 0 00-4 4v10a4 4 0 004 4h22a4 4 0 004-4V10a4 4 0 00-4-4H4z" fill="#666"></path><path fill-rule="evenodd" clip-rule="evenodd" d="M6.656 18.485h3.266c1.574 0 2.55-.778 2.55-2.023 0-.935-.736-1.636-1.738-1.71v-.038c.782-.113 1.385-.76 1.385-1.533 0-1.083-.869-1.764-2.254-1.764H6.656v7.068zM8.2 12.52v1.837h1.11c.822 0 1.292-.348 1.292-.945 0-.568-.414-.892-1.134-.892H8.199zm1.33 4.864h-1.33v-2.052h1.293c.91 0 1.406.353 1.406 1.014 0 .676-.48 1.038-1.37 1.038z" fill="#666"></path><path d="M14.285 12.025h1.492v1.21h1.012v1.077h-1.012v2.513c0 .402.205.593.644.593.133 0 .27-.01.363-.025v1.053a3.573 3.573 0 01-.71.059c-1.288 0-1.79-.411-1.79-1.435v-2.758h-.77v-1.078h.77v-1.21zM19.356 13.234h-1.44v5.251h1.491v-3.012c0-.68.424-1.151 1.094-1.151.67 0 1.007.392 1.007 1.078v3.085H23v-3.384c0-1.23-.685-1.965-1.901-1.965-.843 0-1.42.383-1.712 1.034h-.03v-.936z" fill="#666"></path></svg>