<svg xmlns="http://www.w3.org/2000/svg" viewBox="0 0 56 36"><path fill-rule="evenodd" clip-rule="evenodd" d="M21 10.5C21 13.5376 18.5376 16 15.5 16C12.4624 16 10 13.5376 10 10.5C10 7.46243 12.4624 5 15.5 5C18.5376 5 21 7.46243 21 10.5ZM15.5 14C17.433 14 19 12.433 19 10.5C19 8.567 17.433 7 15.5 7C13.567 7 12 8.567 12 10.5C12 12.433 13.567 14 15.5 14Z" fill="#666666"></path><path d="M17.25 10.5C17.25 11.4665 16.4665 12.25 15.5 12.25C14.5335 12.25 13.75 11.4665 13.75 10.5C13.75 9.5335 14.5335 8.75 15.5 8.75C16.4665 8.75 17.25 9.5335 17.25 10.5Z" fill="#666666"></path><path d="M25 10.5C25 9.67157 25.6716 9 26.5 9H42.5C43.3284 9 44 9.67157 44 10.5C44 11.3284 43.3284 12 42.5 12H26.5C25.6716 12 25 11.3284 25 10.5Z" fill="#666666"></path><path fill-rule="evenodd" clip-rule="evenodd" d="M21 24.5C21 27.5376 18.5376 30 15.5 30C12.4624 30 10 27.5376 10 24.5C10 21.4624 12.4624 19 15.5 19C18.5376 19 21 21.4624 21 24.5ZM15.5 28C17.433 28 19 26.433 19 24.5C19 22.567 17.433 21 15.5 21C13.567 21 12 22.567 12 24.5C12 26.433 13.567 28 15.5 28Z" fill="#666666"></path><path d="M25 24.5C25 23.6716 25.6716 23 26.5 23H42.5C43.3284 23 44 23.6716 44 24.5C44 25.3284 43.3284 26 42.5 26H26.5C25.6716 26 25 25.3284 25 24.5Z" fill="#666666"></path></svg>